# File created by Blade
# Date/Time:  Tue Jan 27 19:58:31 2015
# Frame Rate: 120.000 fps
#------------------------------------------------------
:FULLY-SPECIFIED
:DEGREES
2299
root 6.799179 33.752549 3.371667 12.892300 -20.974819 -27.829314
Spine 3.277085 19.432347 13.223059
Head -12.114422 -2.431154 8.596244
LeftShoulder -17.233171 2.033634 30.665900
LeftArm -4.026127 -3.663362 -81.839469
LeftForeArm -24.786232 -0.000000 129.911110
LeftHand 9.495364 -0.000000 -29.909794
LeftHandThumb1 -26.253704 0.000000 33.147579
RightShoulder -15.988851 -15.215401 -25.034389
RightArm 5.846966 0.923341 74.753895
RightForeArm -14.572241 0.000000 17.487845
RightHand 19.569025 -0.000000 6.493522
RightHandThumb1 -24.326973 -0.000000 -32.862282
LeftUpLeg 6.189150 12.423050 15.065426
LeftLeg -4.688290 -0.000000 0.000000
LeftFoot -20.667649 21.484867 -17.776026
LeftToeBase 22.088160 -0.000000 -0.000000
RightUpLeg -37.937300 -55.231625 -4.874693
RightLeg 108.259938 -0.000000 -0.000000
RightFoot 34.296685 -20.996932 25.176019
RightToeBase 15.411288 -0.000000 -0.000000
2300
root 6.807894 33.752799 3.372982 12.802597 -21.508580 -28.053761
Spine 3.608830 19.622479 13.430384
Head -11.736097 -2.135344 8.601856
LeftShoulder -17.234790 2.075222 30.725968
LeftArm -4.068916 -3.637218 -81.767675
LeftForeArm -24.909467 -0.000000 129.871766
LeftHand 9.432018 -0.000000 -29.909267
LeftHandThumb1 -26.253704 0.000000 33.147579
RightShoulder -15.976860 -15.077489 -25.058230
RightArm 5.885815 0.954865 74.631677
RightForeArm -14.522601 -0.000000 17.449367
RightHand 19.626434 0.000000 6.056584
RightHandThumb1 -24.326973 -0.000000 -32.862282
LeftUpLeg 6.553871 12.569920 15.201487
LeftLeg -4.607616 -0.000000 0.000000
LeftFoot -20.828055 21.775183 -17.756237
LeftToeBase 21.906560 -0.000000 -0.000000
RightUpLeg -39.371499 -54.813842 -4.392332
RightLeg 106.691254 -0.000000 -0.000000
RightFoot 34.555544 -20.615916 24.847996
RightToeBase 15.324707 -0.000000 -0.000000
2301
root 6.813612 33.753706 3.375857 12.680311 -22.060037 -28.286586
Spine 3.978365 19.751159 13.632442
Head -11.361941 -1.805756 8.665615
LeftShoulder -17.256208 2.213922 30.788352
LeftArm -4.077664 -3.667875 -81.712174
LeftForeArm -24.929771 -0.000000 129.859745
LeftHand 9.417826 -0.000000 -29.940642
LeftHandThumb1 -26.253704 0.000000 33.147579
RightShoulder -15.901780 -14.925123 -25.077353
RightArm 5.915778 1.151949 74.541469
RightForeArm -14.610944 -0.000000 17.423548
RightHand 19.599146 -0.000000 5.714228
RightHandThumb1 -24.326973 -0.000000 -32.862282
LeftUpLeg 6.967024 12.790016 15.363380
LeftLeg -4.518821 -0.000000 0.000000
LeftFoot -21.001797 21.986948 -17.803538
LeftToeBase 21.665082 -0.000000 -0.000000
RightUpLeg -40.713089 -54.320725 -3.997830
RightLeg 105.030377 -0.000000 -0.000000
RightFoot 34.677090 -20.383330 24.903929
RightToeBase 16.861171 -0.000000 -0.000000
2302
root 6.824892 33.749942 3.380576 12.506682 -22.568575 -28.457382
Spine 4.405895 19.772859 13.831790
Head -11.046707 -1.445231 8.640136
LeftShoulder -17.343735 2.356451 30.819411
LeftArm -4.059514 -3.644646 -81.656100
LeftForeArm -25.097217 -0.000000 129.823059
LeftHand 9.438728 0.000000 -29.817222
LeftHandThumb1 -26.253704 0.000000 33.147579
RightShoulder -15.776916 -14.744395 -25.182100
RightArm 5.892114 1.390462 74.503466
RightForeArm -14.616683 -0.000000 17.467909
RightHand 19.715652 0.000000 5.311291
RightHandThumb1 -24.326973 -0.000000 -32.862282
LeftUpLeg 7.367516 13.025656 15.466595
LeftLeg -4.399614 -0.000000 0.000000
LeftFoot -21.155537 22.180487 -17.778738
LeftToeBase 21.542272 -0.000000 -0.000000
RightUpLeg -41.984306 -53.899336 -3.739722
RightLeg 103.294332 -0.000000 -0.000000
RightFoot 35.343716 -19.753135 24.092915
RightToeBase 15.373052 -0.000000 -0.000000
2303
root 6.834056 33.747529 3.383540 12.305178 -23.017372 -28.636637
Spine 4.878846 19.795431 14.046356
Head -10.807898 -1.152006 8.682947
LeftShoulder -17.383690 2.388019 30.885138
LeftArm -4.113532 -3.591340 -81.614454
LeftForeArm -25.093157 -0.000000 129.844984
LeftHand 9.382104 -0.000000 -29.820345
LeftHandThumb1 -26.253704 0.000000 33.147579
RightShoulder -15.762260 -14.596342 -25.204908
RightArm 5.918212 1.545837 74.401356
RightForeArm -14.531939 0.000000 17.494515
RightHand 19.881607 -0.000000 4.872795
RightHandThumb1 -24.326973 -0.000000 -32.862282
LeftUpLeg 7.758357 13.233067 15.599015
LeftLeg -4.247983 -0.000000 0.000000
LeftFoot -21.336254 22.333267 -17.786449
LeftToeBase 21.403446 -0.000000 -0.000000
RightUpLeg -43.110337 -53.480733 -3.587751
RightLeg 101.430112 -0.000000 -0.000000
RightFoot 35.740858 -19.297446 23.799929
RightToeBase 14.105634 -0.000000 -0.000000
2304
root 6.847265 33.743438 3.382052 12.090411 -23.421137 -28.772371
Spine 5.362669 19.792746 14.220343
Head -10.631825 -0.856711 8.724860
LeftShoulder -17.420806 2.485923 30.941492
LeftArm -4.040702 -3.505539 -81.609194
LeftForeArm -25.024825 -0.000000 129.844095
LeftHand 9.411605 -0.000000 -29.740296
LeftHandThumb1 -26.253704 0.000000 33.147579
RightShoulder -15.716989 -14.510594 -25.206098
RightArm 5.965696 1.816674 74.318135
RightForeArm -14.523898 0.000000 17.512895
RightHand 19.810636 -0.000000 4.693400
RightHandThumb1 -24.326973 -0.000000 -32.862282
LeftUpLeg 8.091757 13.382409 15.684538
LeftLeg -4.058827 -0.000000 0.000000
LeftFoot -21.534216 22.513491 -17.799769
LeftToeBase 21.262489 -0.000000 -0.000000
RightUpLeg -44.238427 -53.083448 -3.487243
RightLeg 99.478614 -0.000000 -0.000000
RightFoot 36.133712 -18.793279 23.425155
RightToeBase 14.031904 -0.000000 -0.000000
2305
root 6.860112 33.738702 3.379091 11.870046 -23.785509 -28.917543
Spine 5.872293 19.760904 14.435176
Head -10.539556 -0.729170 8.843019
LeftShoulder -17.470278 2.527445 30.976753
LeftArm -3.990030 -3.404734 -81.555975
LeftForeArm -25.200552 -0.000000 129.831115
LeftHand 9.439691 0.000000 -29.564823
LeftHandThumb1 -26.253704 0.000000 33.147579
RightShoulder -15.673784 -14.329490 -25.281980
RightArm 5.876716 2.046165 74.261900
RightForeArm -14.423828 -0.000000 17.561530
RightHand 19.670965 -0.000000 4.458981
RightHandThumb1 -24.326973 -0.000000 -32.862282
LeftUpLeg 8.423193 13.482493 15.784694
LeftLeg -3.883144 -0.000000 0.000000
LeftFoot -21.739160 22.716037 -17.823607
LeftToeBase 21.192072 -0.000000 -0.000000
RightUpLeg -45.222245 -52.660539 -3.482391
RightLeg 97.456071 -0.000000 -0.000000
RightFoot 36.159970 -18.268724 23.394562
RightToeBase 13.945769 -0.000000 -0.000000
2306
root 6.880340 33.735861 3.367791 11.742039 -24.134935 -29.096228
Spine 6.321532 19.775622 14.682131
Head -10.440841 -0.479963 8.803605
LeftShoulder -17.500375 2.482104 31.003558
LeftArm -3.988020 -3.278652 -81.551653
LeftForeArm -25.161549 -0.000000 129.836481
LeftHand 9.389385 -0.000000 -29.420848
LeftHandThumb1 -26.253704 0.000000 33.147579
RightShoulder -15.669731 -14.191155 -25.316501
RightArm 5.824685 2.298975 74.157026
RightForeArm -14.382094 -0.000000 17.591151
RightHand 19.449378 0.000000 4.441516
RightHandThumb1 -24.326973 -0.000000 -32.862282
LeftUpLeg 8.627237 13.600226 15.883349
LeftLeg -3.650983 -0.000000 0.000000
LeftFoot -21.925884 22.954679 -17.725785
LeftToeBase 20.898781 -0.000000 -0.000000
RightUpLeg -46.282309 -52.203966 -3.361621
RightLeg 95.208305 -0.000000 -0.000000
RightFoot 36.409204 -17.922354 23.242462
RightToeBase 13.241900 -0.000000 -0.000000
2307
root 6.896925 33.730274 3.363541 11.476806 -24.400254 -29.186386
Spine 6.859687 19.682919 14.869181
Head -10.355950 -0.190621 8.786837
LeftShoulder -17.520210 2.468590 31.061337
LeftArm -3.959645 -3.166034 -81.547161
LeftForeArm -25.138941 0.000000 129.839315
LeftHand 9.401568 0.000000 -29.326765
LeftHandThumb1 -26.253704 0.000000 33.147579
RightShoulder -15.627188 -14.196760 -25.312917
RightArm 5.884751 2.596191 74.093962
RightForeArm -14.428935 -0.000000 17.593297
RightHand 19.510401 0.000000 4.316688
RightHandThumb1 -24.326973 -0.000000 -32.862282
LeftUpLeg 8.941405 13.423533 15.917413
LeftLeg -3.515592 -0.000000 0.000000
LeftFoot -22.190422 23.352545 -17.873367
LeftToeBase 20.856210 -0.000000 -0.000000
RightUpLeg -47.134621 -51.888561 -3.497464
RightLeg 92.911049 -0.000000 -0.000000
RightFoot 36.519408 -17.716859 23.005035
RightToeBase 14.163571 -0.000000 -0.000000
2308
root 6.913924 33.723017 3.362619 11.217456 -24.587124 -29.278164
Spine 7.347549 19.549771 15.057203
Head -10.252149 0.022275 8.818574
LeftShoulder -17.536507 2.445843 31.144195
LeftArm -3.926674 -2.980922 -81.568694
LeftForeArm -25.043463 -0.000000 129.857107
LeftHand 9.374351 -0.000000 -28.957142
LeftHandThumb1 -26.253704 0.000000 33.147579
RightShoulder -15.617370 -14.116813 -25.310431
RightArm 5.865790 2.678012 73.964992
RightForeArm -14.307019 -0.000000 17.525833
RightHand 19.484683 -0.000000 4.125761
RightHandThumb1 -24.326973 -0.000000 -32.862282
LeftUpLeg 9.210164 13.367514 15.975677
LeftLeg -3.346861 -0.000000 0.000000
LeftFoot -22.399248 23.576176 -17.909172
LeftToeBase 20.687165 -0.000000 -0.000000
RightUpLeg -47.871790 -51.632505 -3.707576
RightLeg 90.476222 -0.000000 -0.000000
RightFoot 36.710378 -17.358503 22.779800
RightToeBase 13.156764 -0.000000 -0.000000
